<?xml version="1.0" encoding="iso-8859-1"?>
<!-- Generator: Adobe Illustrator 16.0.0, SVG Export Plug-In . SVG Version: 6.00 Build 0)  -->
<!DOCTYPE svg PUBLIC "-//W3C//DTD SVG 1.1//EN" "http://www.w3.org/Graphics/SVG/1.1/DTD/svg11.dtd">
<svg version="1.1" id="Capa_1" xmlns="http://www.w3.org/2000/svg" xmlns:xlink="http://www.w3.org/1999/xlink" x="0px" y="0px"
	 width="31.994px" height="31.995px" viewBox="0 0 31.994 31.995" style="enable-background:new 0 0 31.994 31.995;"
	 xml:space="preserve">
<g>
	<path d="M31.895,24.188c-0.077-0.222-0.129-0.437-0.268-0.646c-0.126-0.212-0.267-0.417-0.434-0.568
		c-0.082-0.081-0.166-0.162-0.252-0.235l-0.1-0.07c-0.006-0.331-0.053-0.716-0.221-1.126c-0.181-0.454-0.531-0.889-0.88-1.146
		c-0.35-0.268-0.675-0.415-0.95-0.526c-0.557-0.213-0.976-0.291-1.313-0.399l-0.229-0.074l-0.088-0.031l-0.074-0.03l-0.036-0.017
		l-0.012-0.005c-0.046-0.019-0.103-0.049-0.175-0.106c-0.15-0.118-0.354-0.351-0.57-0.656c-0.438-0.604-0.93-1.467-1.859-2.248
		c-0.233-0.196-0.507-0.377-0.801-0.528c0-0.152-0.002-0.304-0.038-0.452l-0.128-0.68c-0.044-0.229-0.143-0.433-0.216-0.65
		c-0.141-0.445-0.385-0.813-0.603-1.209c-0.507-0.714-1.083-1.369-1.729-1.877c-0.633-0.537-1.313-0.97-2.006-1.359
		c-0.699-0.379-1.409-0.723-2.149-0.987c-0.371-0.136-0.736-0.251-1.128-0.367l-0.602-0.161l-0.533-0.121l-0.132-0.029l-0.095-0.021
		l-0.021-0.009c-0.026-0.012-0.062-0.01-0.082-0.023c-0.045-0.019-0.079-0.039-0.112-0.06c-0.063-0.046-0.139-0.126-0.229-0.286
		c-0.179-0.322-0.326-0.894-0.417-1.518c-0.108-0.637-0.172-1.325-0.298-2.126c-0.075-0.408-0.133-0.833-0.397-1.442
		c-0.058-0.14-0.173-0.334-0.287-0.502c-0.077-0.1-0.16-0.196-0.247-0.288c-0.084-0.091-0.221-0.196-0.341-0.279
		c-0.243-0.167-0.593-0.31-0.878-0.341c-0.324-0.053-0.544-0.018-0.797,0.016L9.347,1.109L9.035,1.907
		C8.815,2.47,8.598,3.033,8.444,3.609C8.353,3.893,8.289,4.182,8.225,4.47C8.159,4.759,8.1,5.049,8.063,5.338
		c-0.039,0.29-0.088,0.58-0.117,0.868L7.875,7.072C7.85,7.647,7.82,8.223,7.839,8.791c0,0.051,0.003,0.102,0.004,0.151
		C7.692,8.731,7.537,8.515,7.354,8.278C7.216,8.109,7.092,7.942,6.92,7.765L6.675,7.503l-0.296-0.26
		c-0.185-0.174-0.44-0.329-0.683-0.479C5.453,6.617,5.151,6.516,4.876,6.41L3.257,5.786L2.923,7.51L2.767,8.322
		C2.726,8.594,2.71,8.864,2.684,9.135c-0.029,0.537-0.026,1.074,0.043,1.591c0.021,0.263,0.06,0.52,0.11,0.771
		c0.045,0.253,0.085,0.509,0.151,0.751c0.113,0.496,0.261,0.973,0.413,1.445c0.169,0.466,0.335,0.93,0.532,1.374
		c0.181,0.454,0.413,0.877,0.631,1.307c0.229,0.423,0.461,0.84,0.71,1.246c0.242,0.408,0.501,0.806,0.76,1.199l0.396,0.586
		l0.42,0.563c0.284,0.373,0.57,0.744,0.866,1.105c0.585,0.726,1.192,1.43,1.839,2.097c0.048,0.051,0.097,0.099,0.145,0.146
		c-0.124-0.031-0.25-0.054-0.384-0.054c-0.349,0-0.666,0.12-0.924,0.316c-1.607-1.729-6.223-3.386-7.403-3.06
		c-0.438,0.121-0.735,0.338-0.884,0.645c-0.252,0.522,0.019,1.163,0.107,1.373c0.078,0.183,0.217,0.318,0.403,0.394
		c0.35,0.14,0.802,0.047,1.109-0.089c0.441-0.19,0.675-0.425,0.479-0.999C2.14,21.66,2.01,21.531,1.827,21.471
		c-0.284-0.096-0.652,0.003-0.854,0.143l0.189,0.273c0.117-0.081,0.375-0.162,0.561-0.102c0.084,0.027,0.138,0.079,0.166,0.165
		c0.114,0.336,0.067,0.429-0.297,0.587c-0.234,0.104-0.599,0.187-0.854,0.084C0.631,22.58,0.56,22.51,0.517,22.408
		c-0.075-0.176-0.302-0.712-0.115-1.099c0.104-0.218,0.331-0.375,0.673-0.47c1.07-0.295,5.597,1.384,7.075,2.97
		c-0.02,0.021-0.039,0.045-0.057,0.067c-2.13-0.396-6.888-0.269-7.668,0.853c-0.26,0.373-0.35,0.729-0.268,1.06
		c0.126,0.506,0.609,0.807,0.961,0.987c0.105,0.055,0.217,0.081,0.329,0.081c0.077,0,0.154-0.014,0.232-0.037
		c0.356-0.116,0.646-0.479,0.797-0.776c0.216-0.429,0.246-0.758-0.271-1.073c-0.165-0.103-0.349-0.117-0.527-0.048
		c-0.278,0.109-0.499,0.42-0.564,0.655l0.319,0.089c0.038-0.137,0.188-0.364,0.367-0.435c0.082-0.033,0.155-0.026,0.232,0.021
		c0.303,0.186,0.326,0.287,0.147,0.643c-0.115,0.228-0.343,0.524-0.603,0.608c-0.108,0.036-0.209,0.028-0.307-0.021
		c-0.17-0.088-0.687-0.354-0.791-0.772c-0.058-0.232,0.016-0.498,0.218-0.789c0.613-0.883,5.013-1.109,7.214-0.736
		c-0.082,0.188-0.129,0.395-0.129,0.611c0,0.847,0.686,1.53,1.531,1.53c0.397,0,0.756-0.155,1.028-0.402l-0.007,0.012
		c0,0,1.698,1.522,3.572,3.203c1.875,1.68,7.417,2.316,7.935,1.615c0.105-0.145-0.157-0.392-0.644-0.694
		c0.551,0.092,1.103,0.174,1.661,0.221c0.854,0.077,1.722,0.125,2.61,0.112c0.891-0.01,1.798-0.116,2.762-0.364
		c0.479-0.125,0.981-0.312,1.493-0.603l0.383-0.239c0.129-0.102,0.255-0.206,0.379-0.313c0.113-0.084,0.281-0.29,0.408-0.45
		c0.066-0.087,0.13-0.176,0.189-0.266l0.075-0.137l0.075-0.136l0.02-0.033l0.01-0.018l0.073-0.153l0.033-0.082l0.131-0.332
		l0.129-0.333l0.114-0.363c0.148-0.478,0.283-1.041,0.247-1.781C31.967,24.586,31.968,24.414,31.895,24.188z M23.528,17.681
		l-0.074-0.013l-0.018-0.002l0.016-0.054l0.001-0.011C23.479,17.626,23.504,17.655,23.528,17.681z M14.543,26.734l-0.484,0.001
		c-0.128-0.061-0.235-0.111-0.317-0.155c-0.013-0.028-0.025-0.056-0.038-0.083c0.576-0.945,1.174-1.876,1.788-2.797L14.543,26.734z
		 M22.234,16.913l-0.025,0.2c-0.014,0.082-0.02,0.182-0.037,0.251l-0.076,0.258l-0.057,0.192l-0.064,0.023
		c-0.162,0.059-0.293,0.124-0.416,0.193c-0.132,0.069-0.248,0.141-0.354,0.214c-0.442,0.293-0.8,0.603-1.133,0.917
		c-0.66,0.632-1.239,1.273-1.761,1.959c-0.521,0.684-1.021,1.366-1.483,2.073c-0.443,0.702-0.887,1.396-1.286,2.122
		c0.148-0.332,0.295-0.664,0.445-0.994l1.104-2.589l0.305-0.755c0.6-0.804,1.222-1.586,1.893-2.323
		c0.574-0.614,1.183-1.233,1.9-1.626c0.181-0.092,0.369-0.165,0.555-0.18C21.884,16.835,22.069,16.874,22.234,16.913z
		 M20.817,20.338l-0.098,0.147c-0.188,0.302-0.402,0.588-0.62,0.871c-0.208,0.289-0.437,0.562-0.668,0.836
		c-0.225,0.278-0.465,0.542-0.708,0.806c-0.479,0.529-0.984,1.036-1.504,1.529c-0.323,0.31-0.662,0.603-0.998,0.899
		c0.432-0.557,0.867-1.106,1.315-1.647c0.526-0.635,1.069-1.257,1.634-1.858C19.695,21.367,20.238,20.829,20.817,20.338z
		 M16.569,20.247c-0.397,0.643-0.788,1.281-1.135,1.945c-0.405,0.769-0.815,1.529-1.172,2.32c-0.256,0.536-0.49,1.084-0.716,1.636
		c-0.687-1.562-1.3-3.157-1.845-4.772c-0.68-2.03-1.256-4.099-1.666-6.199c-0.105-0.523-0.193-1.051-0.278-1.579
		c-0.056-0.406-0.113-0.813-0.159-1.221c0.23,0.015,0.462,0.007,0.688-0.028c0.381-0.035,0.721-0.125,1.084-0.186
		c0.358-0.088,0.708-0.074,1.062-0.107c0.088-0.004,0.176-0.014,0.264-0.014l0.267,0.018l0.53,0.037
		c0.177,0.016,0.347,0.068,0.521,0.102c0.172,0.039,0.349,0.065,0.511,0.139l0.495,0.188l0.461,0.256
		c0.161,0.076,0.291,0.199,0.435,0.301l0.211,0.16l0.188,0.186c0.261,0.24,0.481,0.52,0.684,0.811c0.2,0.293,0.377,0.603,0.519,0.93
		c0.144,0.313,0.259,0.646,0.335,0.975L16.569,20.247z M15.974,27.577c-0.369-0.159-0.718-0.31-1.028-0.445
		c0.1-0.136,0.2-0.269,0.301-0.403c0.221-0.141,0.443-0.28,0.662-0.428c0.597-0.416,1.189-0.842,1.767-1.294
		c0.571-0.456,1.131-0.932,1.671-1.437c0.272-0.25,0.543-0.503,0.801-0.773c0.266-0.263,0.519-0.537,0.759-0.826
		c0.248-0.283,0.493-0.569,0.719-0.883l0.345-0.459c0.112-0.156,0.212-0.324,0.319-0.488l0.313-0.497l0.234-0.467
		c0.063-0.008,0.128-0.017,0.189-0.014c0.071,0,0.194,0.034,0.289,0.05c0.104,0.018,0.204,0.039,0.288,0.077
		c0.089,0.035,0.181,0.062,0.268,0.104l0.258,0.14c0.332,0.21,0.622,0.485,0.88,0.794c0.512,0.626,0.896,1.362,1.435,2.024
		c0.271,0.325,0.59,0.645,0.997,0.836c0.386,0.186,0.801,0.306,1.193,0.424c0.108,0.033,0.216,0.064,0.322,0.1
		c-0.079,0.289-0.175,0.578-0.285,0.861c-0.261,0.779-0.975,1.288-1.719,1.645c-0.757,0.359-1.575,0.59-2.402,0.77
		c-1.659,0.351-3.362,0.496-5.063,0.57C18.316,27.601,17.145,27.606,15.974,27.577z M28.673,21.79l-0.062-0.018
		c-0.065-0.021-0.106-0.026-0.219-0.072l-0.145-0.057l-0.045-0.019l-0.008-0.005c-0.056-0.017-0.141-0.074-0.239-0.167
		c0.064,0.021,0.134,0.041,0.196,0.064C28.343,21.588,28.521,21.677,28.673,21.79z M9.405,8.812
		c-0.002-0.534,0.043-1.066,0.08-1.596l0.09-0.793c0.033-0.264,0.087-0.525,0.129-0.787c0.038-0.264,0.105-0.521,0.166-0.78
		c0.059-0.258,0.119-0.518,0.204-0.769c0.133-0.479,0.315-0.939,0.5-1.399c0.257-0.015,0.456,0.136,0.569,0.422
		c0.131,0.3,0.196,0.649,0.251,0.997c0.104,0.7,0.16,1.419,0.272,2.137c0.124,0.714,0.282,1.443,0.654,2.106
		c0.188,0.326,0.442,0.63,0.767,0.848c0.314,0.228,0.722,0.327,1.063,0.393c0.708,0.134,1.376,0.334,2.054,0.563
		c0.671,0.234,1.325,0.517,1.958,0.839c0.627,0.33,1.237,0.697,1.789,1.14c0.57,0.421,1.045,0.949,1.47,1.506
		c0.173,0.303,0.39,0.584,0.501,0.917c0.06,0.163,0.148,0.317,0.186,0.488l0.066,0.292c-0.139-0.014-0.413-0.037-0.57-0.006
		c-0.497,0.06-0.826,0.221-1.105,0.37c-0.548,0.318-0.909,0.666-1.262,1.009c-0.095,0.097-0.182,0.194-0.271,0.29
		c0.062-0.162,0.123-0.326,0.185-0.489l0.098-0.253l-0.062-0.34c-0.052-0.295-0.101-0.474-0.163-0.698
		c-0.064-0.209-0.13-0.42-0.213-0.621c-0.155-0.409-0.354-0.805-0.589-1.188c-0.235-0.381-0.512-0.746-0.841-1.072l-0.242-0.249
		l-0.271-0.222c-0.185-0.144-0.357-0.305-0.564-0.417c-0.202-0.121-0.403-0.244-0.609-0.358l-0.647-0.27
		c-0.216-0.1-0.438-0.146-0.662-0.203c-0.223-0.051-0.448-0.12-0.67-0.148l-0.668-0.069l-0.334-0.03
		c-0.113-0.003-0.23,0.004-0.346,0.006c-0.231,0.006-0.464,0.024-0.695,0.038c-0.109,0.011-0.245,0.015-0.333,0.03l-0.269,0.047
		l-0.537,0.093L10.26,10.63c-0.089,0.013-0.121,0.01-0.184,0.017c-0.232,0.033-0.415,0.016-0.57-0.019
		c-0.021-0.007-0.042-0.012-0.065-0.017c-0.004-0.067-0.009-0.134-0.014-0.2C9.414,9.878,9.389,9.345,9.405,8.812z M7.14,18.165
		c-0.228-0.391-0.453-0.785-0.662-1.187c-0.215-0.398-0.411-0.808-0.604-1.216c-0.184-0.413-0.374-0.824-0.53-1.248
		c-0.17-0.419-0.307-0.85-0.446-1.277c-0.123-0.434-0.242-0.869-0.326-1.311c-0.054-0.219-0.079-0.442-0.112-0.664
		c-0.039-0.221-0.065-0.444-0.075-0.667C4.341,10.148,4.35,9.7,4.376,9.255C4.401,9.034,4.416,8.81,4.452,8.591l0.097-0.468
		c0.255,0.109,0.498,0.245,0.709,0.44l0.193,0.171L5.628,8.93C5.75,9.055,5.855,9.201,5.965,9.34
		c0.435,0.566,0.802,1.201,1.293,1.768c0.243,0.271,0.501,0.541,0.815,0.747c0.014,0.103,0.026,0.206,0.042,0.307
		c0.076,0.555,0.188,1.101,0.291,1.646c0.114,0.543,0.23,1.085,0.367,1.621c0.259,1.072,0.592,2.123,0.947,3.158
		c0.181,0.519,0.362,1.033,0.559,1.543c0.188,0.515,0.409,1.015,0.622,1.516c0.434,1,0.886,1.988,1.395,2.95
		c0.244,0.465,0.486,0.928,0.749,1.379c-0.989-1.066-1.932-2.18-2.829-3.324C9.1,21.221,8.061,19.728,7.14,18.165z M10.756,25.299
		c0.055-0.157,0.091-0.325,0.091-0.503c0-0.129-0.02-0.25-0.049-0.37c0.242,0.233,0.489,0.464,0.736,0.689
		c0.306,0.273,0.608,0.549,0.924,0.811c-0.809-0.34-1.691-0.645-1.691-0.645L10.756,25.299z M30.101,26.096
		c-0.053,0.193-0.114,0.388-0.19,0.575l-0.109,0.286l-0.026,0.071c0.004-0.004-0.02,0.038-0.027,0.055l-0.073,0.139l-0.073,0.136
		l-0.089,0.104c-0.062,0.069-0.104,0.148-0.185,0.209l-0.219,0.194l-0.246,0.163c-0.337,0.206-0.71,0.366-1.098,0.48
		c-0.773,0.24-1.59,0.359-2.407,0.429c-1.638,0.129-3.292,0.062-4.936-0.068c-0.663-0.057-1.324-0.128-1.986-0.209
		c-0.119-0.054-0.239-0.107-0.359-0.162c0.48,0.05,0.964,0.092,1.448,0.113c0.872,0.043,1.753,0.089,2.64,0.047
		c0.886-0.032,1.778-0.097,2.688-0.229c0.909-0.146,1.827-0.362,2.783-0.768c0.476-0.206,0.967-0.468,1.449-0.863
		c0.239-0.195,0.479-0.434,0.688-0.72c0.087-0.104,0.249-0.388,0.305-0.501l0.034-0.071l0.019-0.034l0.047-0.104l0.069-0.167
		c0.007-0.015,0.013-0.03,0.019-0.046C30.256,25.467,30.197,25.786,30.101,26.096z"/>
</g>
<g>
</g>
<g>
</g>
<g>
</g>
<g>
</g>
<g>
</g>
<g>
</g>
<g>
</g>
<g>
</g>
<g>
</g>
<g>
</g>
<g>
</g>
<g>
</g>
<g>
</g>
<g>
</g>
<g>
</g>
</svg>
